<svg width="24" height="24" viewBox="0 0 24 24" fill="none" xmlns="http://www.w3.org/2000/svg">
<path d="M24 12C24 13.392 23.76 14.736 23.328 15.984C21.744 20.472 17.592 23.736 12.624 23.976C12.432 23.976 12.216 24 12 24C11.784 24 11.592 24 11.376 23.976C6.408 23.736 2.256 20.472 0.672 15.984C0.24 14.736 0 13.392 0 12C0 10.608 0.24 9.264 0.672 8.016C2.256 3.528 6.408 0.264 11.376 0.0240001C11.592 9.11951e-08 11.784 0 12 0C12.216 0 12.408 9.11951e-08 12.624 0.0240001C17.592 0.264 21.744 3.528 23.328 8.016C23.76 9.264 24 10.608 24 12Z" fill="#008757"/>
<path d="M12 18C15.3137 18 18 15.3137 18 12C18 8.68629 15.3137 6 12 6C8.68629 6 6 8.68629 6 12C6 15.3137 8.68629 18 12 18Z" fill="#ED3342"/>
</svg>
