<svg width="23" height="23" viewBox="0 0 23 23" fill="none" xmlns="http://www.w3.org/2000/svg">
<g clip-path="url(#clip0_1610_21392)">
<path d="M19.9663 14.9879V7.63157C19.9659 7.30906 19.8808 6.99231 19.7194 6.7131C19.558 6.43388 19.326 6.20201 19.0467 6.04076L12.61 2.3626C12.3304 2.20119 12.0132 2.11621 11.6904 2.11621C11.3676 2.11621 11.0504 2.20119 10.7709 2.3626L4.33409 6.04076C4.05479 6.20201 3.82281 6.43388 3.66141 6.7131C3.50002 6.99231 3.41488 7.30906 3.41455 7.63157V14.9879C3.41488 15.3104 3.50002 15.6271 3.66141 15.9064C3.82281 16.1856 4.05479 16.4174 4.33409 16.5787L10.7709 20.2569C11.0504 20.4183 11.3676 20.5032 11.6904 20.5032C12.0132 20.5032 12.3304 20.4183 12.61 20.2569L19.0467 16.5787C19.326 16.4174 19.558 16.1856 19.7194 15.9064C19.8808 15.6271 19.9659 15.3104 19.9663 14.9879Z" stroke="white" strokeWidth="2.28954" strokeLinecap="round" strokeLinejoin="round"/>
<path d="M3.66357 6.67578L11.6912 11.3195L19.7187 6.67578" stroke="white" strokeWidth="2.28954" strokeLinecap="round" strokeLinejoin="round"/>
<path d="M11.6909 20.5795V11.3105" stroke="white" strokeWidth="2.28954" strokeLinecap="round" strokeLinejoin="round"/>
</g>
<defs>
<clipPath id="clip0_1610_21392">
<rect width="22.069" height="22.069" fill="white" transform="translate(0.65625 0.275391)"/>
</clipPath>
</defs>
</svg>
