<svg width="22" height="20" viewBox="0 0 22 20" fill="none" xmlns="http://www.w3.org/2000/svg">
<path d="M9.19436 18.4615C9.19436 18.7658 9.10448 19.0633 8.9361 19.3163C8.76772 19.5693 8.52839 19.7664 8.24839 19.8829C7.96838 19.9993 7.66026 20.0298 7.36301 19.9704C7.06575 19.9111 6.79271 19.7646 6.5784 19.5494C6.36409 19.3342 6.21814 19.0601 6.15902 18.7617C6.09989 18.4632 6.13023 18.1539 6.24622 17.8728C6.3622 17.5917 6.55861 17.3514 6.81061 17.1824C7.06261 17.0133 7.35889 16.9231 7.66196 16.9231C8.06838 16.9231 8.45815 17.0852 8.74553 17.3737C9.03291 17.6622 9.19436 18.0535 9.19436 18.4615ZM17.6225 16.9231C17.3194 16.9231 17.0232 17.0133 16.7712 17.1824C16.5192 17.3514 16.3228 17.5917 16.2068 17.8728C16.0908 18.1539 16.0604 18.4632 16.1196 18.7617C16.1787 19.0601 16.3246 19.3342 16.539 19.5494C16.7533 19.7646 17.0263 19.9111 17.3236 19.9704C17.6208 20.0298 17.9289 19.9993 18.2089 19.8829C18.4889 19.7664 18.7283 19.5693 18.8967 19.3163C19.065 19.0633 19.1549 18.7658 19.1549 18.4615C19.1549 18.0535 18.9935 17.6622 18.7061 17.3737C18.4187 17.0852 18.0289 16.9231 17.6225 16.9231ZM21.8462 4.15385C21.7743 4.05886 21.6817 3.98171 21.5754 3.92836C21.4691 3.87502 21.352 3.84689 21.2332 3.84615H4.62591L3.85014 1.11538C3.75712 0.794564 3.5632 0.512571 3.29736 0.311535C3.03152 0.110499 2.70803 0.00121123 2.37521 0H0.766196C0.562989 0 0.368103 0.0810437 0.224414 0.225302C0.080724 0.369561 0 0.565218 0 0.769231C0 0.973243 0.080724 1.1689 0.224414 1.31316C0.368103 1.45742 0.562989 1.53846 0.766196 1.53846H2.37521L3.3138 4.81731V4.83654L5.84225 13.7115C5.98109 14.1932 6.27178 14.6166 6.6707 14.9183C7.06961 15.2199 7.55522 15.3836 8.05464 15.3846H17.2298C17.7293 15.3836 18.2149 15.2199 18.6138 14.9183C19.0127 14.6166 19.3034 14.1932 19.4422 13.7115L21.9707 4.82692C22.0031 4.7127 22.0087 4.59249 21.9871 4.47571C21.9655 4.35894 21.9173 4.24877 21.8462 4.15385Z" fill="white"/>
</svg>
