<svg width="23" height="23" viewBox="0 0 23 23" fill="none" xmlns="http://www.w3.org/2000/svg">
<path d="M19.9653 14.9879V7.63157C19.965 7.30906 19.8798 6.99231 19.7184 6.7131C19.557 6.43388 19.3251 6.20202 19.0458 6.04076L12.609 2.3626C12.3294 2.20119 12.0123 2.11621 11.6894 2.11621C11.3666 2.11621 11.0495 2.20119 10.7699 2.3626L4.33311 6.04076C4.05382 6.20202 3.82183 6.43388 3.66044 6.7131C3.49904 6.99231 3.41391 7.30906 3.41357 7.63157V14.9879C3.41391 15.3104 3.49904 15.6271 3.66044 15.9064C3.82183 16.1856 4.05382 16.4174 4.33311 16.5787L10.7699 20.2569C11.0495 20.4183 11.3666 20.5032 11.6894 20.5032C12.0123 20.5032 12.3294 20.4183 12.609 20.2569L19.0458 16.5787C19.3251 16.4174 19.557 16.1856 19.7184 15.9064C19.8798 15.6271 19.965 15.3104 19.9653 14.9879Z" stroke="white" strokeWidth="1.42899" strokeLinecap="round" strokeLinejoin="round"/>
<path d="M7.55176 4.14648L11.6897 6.53729L15.8276 4.14648" stroke="white" strokeWidth="1.42899" strokeLinecap="round" strokeLinejoin="round"/>
<path d="M7.5515 18.4738V13.7014L3.41357 11.3105" stroke="white" strokeWidth="1.90533" strokeLinecap="round" strokeLinejoin="round"/>
<path d="M19.9656 11.3105L15.8276 13.7014V18.4738" stroke="white" strokeWidth="1.90533" strokeLinecap="round" strokeLinejoin="round"/>
<path d="M3.66211 6.6748L11.6897 11.3185L19.7173 6.6748" stroke="white" strokeWidth="1.42899" strokeLinecap="round" strokeLinejoin="round"/>
<path d="M11.6899 20.5795V11.3105" stroke="white" strokeWidth="1.42899" strokeLinecap="round" strokeLinejoin="round"/>
</svg>
