<svg width="24" height="24" viewBox="0 0 24 24" fill="none" xmlns="http://www.w3.org/2000/svg">
<rect width="24" height="24" rx="12" fill="#BB0000"/>
<path d="M8.85021 14.3367C8.85021 14.1561 8.79664 13.9795 8.69628 13.8293C8.59591 13.6791 8.45326 13.562 8.28636 13.4929C8.11946 13.4237 7.93581 13.4056 7.75863 13.4409C7.58145 13.4761 7.4187 13.5631 7.29096 13.6909C7.16322 13.8186 7.07623 13.9814 7.04099 14.1585C7.00575 14.3357 7.02383 14.5194 7.09297 14.6863C7.1621 14.8532 7.27917 14.9958 7.42937 15.0962C7.57958 15.1965 7.75617 15.2501 7.93682 15.2501C8.05689 15.2501 8.17578 15.2264 8.28669 15.1804C8.3976 15.1345 8.49836 15.067 8.58319 14.9821C8.66803 14.8971 8.73528 14.7963 8.78109 14.6853C8.82691 14.5743 8.8504 14.4554 8.85021 14.3353V14.3367Z" fill="white"/>
<path d="M16.3414 12.9222C16.6716 12.924 16.9907 13.0411 17.2436 13.2535C17.4964 13.4658 17.667 13.7598 17.7258 14.0847H18.1854V11.8714L16.5805 9.51636H14.4932V14.0847H14.9513C15.0105 13.759 15.1821 13.4643 15.436 13.252C15.69 13.0396 16.0103 12.9229 16.3414 12.9222ZM15.2748 10.2737H16.151L16.9355 11.3832H15.2748V10.2737Z" fill="white"/>
<path d="M16.3416 15.2472C16.8453 15.2472 17.2536 14.839 17.2536 14.3353C17.2536 13.8316 16.8453 13.4233 16.3416 13.4233C15.838 13.4233 15.4297 13.8316 15.4297 14.3353C15.4297 14.839 15.838 15.2472 16.3416 15.2472Z" fill="white"/>
<path d="M9.27989 10.4098C9.31834 10.3976 9.35161 10.3729 9.37437 10.3396C9.39829 10.3021 9.41027 10.2582 9.40873 10.2137C9.41217 10.1619 9.39579 10.1107 9.36292 10.0705C9.32925 10.0346 9.28427 10.0113 9.2355 10.0046C9.2083 10.0046 9.12527 10.0046 8.98783 10.0046H8.71582V10.4341H8.96779C9.07243 10.439 9.17727 10.4309 9.27989 10.4098Z" fill="white"/>
<path d="M7.93933 12.9223C8.27054 12.9224 8.59119 13.0389 8.84527 13.2513C9.09936 13.4638 9.27072 13.7588 9.32945 14.0848H13.9923V7.74976H5.80762V14.0848H6.54921C6.60846 13.759 6.77997 13.4644 7.03394 13.252C7.2879 13.0396 7.60826 12.9229 7.93933 12.9223ZM11.6344 9.72112H12.8799V10.0075H11.9737V10.3797H12.8169V10.666H11.9737V11.1227H12.9128V11.409H11.6344V9.72112ZM10.0696 9.72112H11.3151V10.0075H10.4089V10.3797H11.2521V10.666H10.4089V11.1227H11.3466V11.409H10.0696V9.72112ZM8.37741 9.72112H9.09323C9.22505 9.71475 9.35703 9.72974 9.48407 9.7655C9.56433 9.79558 9.63231 9.85148 9.67734 9.92442C9.72675 10.0038 9.75211 10.0958 9.75035 10.1893C9.75439 10.3038 9.71443 10.4154 9.63868 10.5014C9.54974 10.5906 9.43206 10.6453 9.30654 10.656C9.37359 10.6949 9.4348 10.7431 9.48836 10.7991C9.55992 10.884 9.62455 10.9745 9.68163 11.0697L9.88636 11.3976H9.4812L9.23639 11.0354C9.1821 10.9477 9.12233 10.8635 9.05744 10.7834C9.02952 10.7524 8.9947 10.7283 8.95579 10.7132C8.89985 10.6981 8.84188 10.6918 8.784 10.6946H8.71528V11.3961H8.37741V9.72112ZM6.94577 9.72112H8.09824V10.0075H7.28364V10.4054H7.99087V10.6918H7.28936V11.4076H6.94434L6.94577 9.72112Z" fill="white"/>
<path d="M19.5161 15.2488H4.48394C4.41749 15.2488 4.35376 15.2752 4.30678 15.3222C4.25979 15.3691 4.2334 15.4329 4.2334 15.4993C4.2334 15.5658 4.25979 15.6295 4.30678 15.6765C4.35376 15.7235 4.41749 15.7499 4.48394 15.7499H19.5161C19.5826 15.7499 19.6463 15.7235 19.6933 15.6765C19.7403 15.6295 19.7667 15.5658 19.7667 15.4993C19.7667 15.4329 19.7403 15.3691 19.6933 15.3222C19.6463 15.2752 19.5826 15.2488 19.5161 15.2488Z" fill="white"/>
</svg>
