<svg width="16" height="9" viewBox="0 0 16 9" fill="none" xmlns="http://www.w3.org/2000/svg">
<path d="M4.85021 7.33673C4.85021 7.15608 4.79664 6.97948 4.69628 6.82928C4.59591 6.67907 4.45326 6.562 4.28636 6.49287C4.11946 6.42374 3.93581 6.40565 3.75863 6.44089C3.58145 6.47613 3.4187 6.56313 3.29096 6.69087C3.16322 6.8186 3.07623 6.98135 3.04099 7.15853C3.00575 7.33571 3.02383 7.51936 3.09297 7.68626C3.1621 7.85316 3.27917 7.99581 3.42937 8.09618C3.57958 8.19654 3.75617 8.25011 3.93682 8.25011C4.05689 8.25011 4.17578 8.22644 4.28669 8.18045C4.3976 8.13446 4.49836 8.06705 4.58319 7.98208C4.66803 7.89711 4.73528 7.79625 4.78109 7.68527C4.82691 7.57429 4.8504 7.45536 4.85021 7.33529V7.33673Z" fill="white"/>
<path d="M12.3414 5.92235C12.6716 5.92409 12.9907 6.04126 13.2436 6.25358C13.4964 6.46589 13.667 6.75996 13.7258 7.08484H14.1854V4.87153L12.5805 2.51648H10.4932V7.08484H10.9513C11.0105 6.75912 11.1821 6.46446 11.436 6.25208C11.69 6.0397 12.0103 5.92303 12.3414 5.92235ZM11.2748 3.27382H12.151L12.9355 4.38334H11.2748V3.27382Z" fill="white"/>
<path d="M12.3416 8.24725C12.8453 8.24725 13.2536 7.83895 13.2536 7.33529C13.2536 6.83163 12.8453 6.42334 12.3416 6.42334C11.838 6.42334 11.4297 6.83163 11.4297 7.33529C11.4297 7.83895 11.838 8.24725 12.3416 8.24725Z" fill="white"/>
<path d="M5.27989 3.40979C5.31834 3.39763 5.35161 3.37293 5.37437 3.33964C5.39829 3.30208 5.41027 3.25816 5.40873 3.21366C5.41217 3.16185 5.39579 3.11068 5.36292 3.07049C5.32925 3.03459 5.28427 3.01134 5.2355 3.00464C5.2083 3.00464 5.12527 3.00464 4.98783 3.00464H4.71582V3.43413H4.96779C5.07243 3.43904 5.17727 3.43086 5.27989 3.40979Z" fill="white"/>
<path d="M3.93933 5.92227C4.27054 5.92239 4.59119 6.03886 4.84527 6.25134C5.09936 6.46381 5.27072 6.75879 5.32945 7.08476H9.9923V0.749756H1.80762V7.08476H2.54921C2.60846 6.75904 2.77997 6.46438 3.03394 6.252C3.2879 6.03962 3.60826 5.92295 3.93933 5.92227ZM7.63439 2.72112H8.87992V3.00745H7.97369V3.37968H8.81692V3.666H7.97369V4.1227H8.91284V4.40903H7.63439V2.72112ZM6.06961 2.72112H7.31513V3.00745H6.40891V3.37968H7.25214V3.666H6.40891V4.1227H7.34663V4.40903H6.06961V2.72112ZM4.37741 2.72112H5.09323C5.22505 2.71475 5.35703 2.72974 5.48407 2.7655C5.56433 2.79558 5.63231 2.85148 5.67734 2.92442C5.72675 3.00379 5.75211 3.09578 5.75035 3.18927C5.75439 3.30375 5.71443 3.41543 5.63868 3.50137C5.54974 3.59056 5.43206 3.64535 5.30654 3.65598C5.37359 3.69491 5.4348 3.7431 5.48836 3.79915C5.55992 3.88403 5.62455 3.97451 5.68163 4.06973L5.88636 4.39757H5.4812L5.23639 4.03537C5.1821 3.9477 5.12233 3.86354 5.05744 3.7834C5.02952 3.75237 4.9947 3.72834 4.95579 3.71325C4.89985 3.69812 4.84188 3.69184 4.784 3.69464H4.71528V4.39614H4.37741V2.72112ZM2.94577 2.72112H4.09824V3.00745H3.28364V3.40545H3.99087V3.69177H3.28936V4.40759H2.94434L2.94577 2.72112Z" fill="white"/>
<path d="M15.5161 8.24878H0.483935C0.417489 8.24878 0.353764 8.27517 0.306779 8.32216C0.259794 8.36914 0.233398 8.43287 0.233398 8.49932C0.233398 8.56576 0.259794 8.62949 0.306779 8.67647C0.353764 8.72346 0.417489 8.74985 0.483935 8.74985H15.5161C15.5826 8.74985 15.6463 8.72346 15.6933 8.67647C15.7403 8.62949 15.7667 8.56576 15.7667 8.49932C15.7667 8.43287 15.7403 8.36914 15.6933 8.32216C15.6463 8.27517 15.5826 8.24878 15.5161 8.24878Z" fill="white"/>
</svg>
