<svg width="23" height="22" viewBox="0 0 23 22" fill="none" xmlns="http://www.w3.org/2000/svg">
<g clipPath="url(#clip0_1155_23089)">
<path d="M19.7465 9.06119C19.7465 15.3265 11.6911 20.6968 11.6911 20.6968C11.6911 20.6968 3.63574 15.3265 3.63574 9.06119C3.63574 6.92477 4.48443 4.87585 5.99511 3.36517C7.50579 1.85449 9.55471 1.0058 11.6911 1.0058C13.8276 1.0058 15.8765 1.85449 17.3872 3.36517C18.8978 4.87585 19.7465 6.92477 19.7465 9.06119Z" stroke="#4C4C4C" strokeWidth="1.79009" strokeLinecap="round" strokeLinejoin="round"/>
<path d="M11.691 11.7464C13.1739 11.7464 14.3761 10.5442 14.3761 9.06123C14.3761 7.57827 13.1739 6.3761 11.691 6.3761C10.208 6.3761 9.00586 7.57827 9.00586 9.06123C9.00586 10.5442 10.208 11.7464 11.691 11.7464Z" stroke="#4C4C4C" strokeWidth="1.79009" strokeLinecap="round" strokeLinejoin="round"/>
</g>
<defs>
<clipPath id="clip0_1155_23089">
<rect width="21.481" height="21.481" fill="white" transform="translate(0.950195 0.110779)"/>
</clipPath>
</defs>
</svg>
