<svg width="24" height="24" viewBox="0 0 24 24" fill="none" xmlns="http://www.w3.org/2000/svg">
<rect width="24" height="24" rx="12" fill="#F95506"/>
<path d="M8.8507 14.3372C8.8507 14.1566 8.79713 13.98 8.69676 13.8298C8.5964 13.6796 8.45375 13.5625 8.28685 13.4934C8.11995 13.4242 7.9363 13.4061 7.75912 13.4414C7.58194 13.4766 7.41919 13.5636 7.29145 13.6914C7.16371 13.8191 7.07672 13.9818 7.04148 14.159C7.00623 14.3362 7.02432 14.5199 7.09345 14.6868C7.16259 14.8537 7.27966 14.9963 7.42986 15.0967C7.58007 15.197 7.75666 15.2506 7.93731 15.2506C8.05738 15.2506 8.17627 15.2269 8.28718 15.1809C8.39809 15.1349 8.49885 15.0675 8.58368 14.9826C8.66851 14.8976 8.73576 14.7967 8.78158 14.6858C8.8274 14.5748 8.85089 14.4559 8.8507 14.3358V14.3372Z" fill="white"/>
<path d="M16.3424 12.9225C16.6725 12.9242 16.9917 13.0414 17.2445 13.2537C17.4974 13.466 17.668 13.7601 17.7268 14.085H18.1863V11.8716L16.5815 9.5166H14.4941V14.085H14.9523C15.0115 13.7592 15.183 13.4646 15.437 13.2522C15.691 13.0398 16.0113 12.9232 16.3424 12.9225ZM15.2758 10.2739H16.152L16.9365 11.3835H15.2758V10.2739Z" fill="white"/>
<path d="M16.3421 15.2477C16.8458 15.2477 17.2541 14.8394 17.2541 14.3358C17.2541 13.8321 16.8458 13.4238 16.3421 13.4238C15.8385 13.4238 15.4302 13.8321 15.4302 14.3358C15.4302 14.8394 15.8385 15.2477 16.3421 15.2477Z" fill="white"/>
<path d="M9.27989 10.41C9.31834 10.3979 9.35161 10.3732 9.37437 10.3399C9.39829 10.3023 9.41027 10.2584 9.40873 10.2139C9.41217 10.1621 9.39579 10.1109 9.36292 10.0707C9.32925 10.0348 9.28427 10.0116 9.2355 10.0049C9.2083 10.0049 9.12527 10.0049 8.98783 10.0049H8.71582V10.4344H8.96779C9.07243 10.4393 9.17727 10.4311 9.27989 10.41Z" fill="white"/>
<path d="M7.93982 12.9225C8.27103 12.9226 8.59168 13.0391 8.84576 13.2516C9.09984 13.4641 9.27121 13.759 9.32994 14.085H13.9928V7.75H5.80811V14.085H6.54969C6.60894 13.7593 6.78046 13.4646 7.03443 13.2522C7.28839 13.0399 7.60875 12.9232 7.93982 12.9225ZM11.6349 9.72137H12.8804V10.0077H11.9742V10.3799H12.8174V10.6662H11.9742V11.1229H12.9133V11.4093H11.6349V9.72137ZM10.0701 9.72137H11.3156V10.0077H10.4094V10.3799H11.2526V10.6662H10.4094V11.1229H11.3471V11.4093H10.0701V9.72137ZM8.3779 9.72137H9.09372C9.22554 9.71499 9.35752 9.72998 9.48456 9.76575C9.56482 9.79583 9.6328 9.85173 9.67783 9.92466C9.72724 10.004 9.7526 10.096 9.75084 10.1895C9.75488 10.304 9.71492 10.4157 9.63917 10.5016C9.55023 10.5908 9.43255 10.6456 9.30703 10.6562C9.37408 10.6951 9.43529 10.7433 9.48885 10.7994C9.56041 10.8843 9.62504 10.9748 9.68212 11.07L9.88685 11.3978H9.48169L9.23688 11.0356C9.18259 10.9479 9.12282 10.8638 9.05793 10.7836C9.03001 10.7526 8.99519 10.7286 8.95628 10.7135C8.90034 10.6984 8.84237 10.6921 8.78448 10.6949H8.71577V11.3964H8.3779V9.72137ZM6.94626 9.72137H8.09873V10.0077H7.28413V10.4057H7.99136V10.692H7.28985V11.4078H6.94483L6.94626 9.72137Z" fill="white"/>
<path d="M19.5161 15.249H4.48394C4.41749 15.249 4.35376 15.2754 4.30678 15.3224C4.25979 15.3694 4.2334 15.4331 4.2334 15.4996C4.2334 15.566 4.25979 15.6297 4.30678 15.6767C4.35376 15.7237 4.41749 15.7501 4.48394 15.7501H19.5161C19.5826 15.7501 19.6463 15.7237 19.6933 15.6767C19.7403 15.6297 19.7667 15.566 19.7667 15.4996C19.7667 15.4331 19.7403 15.3694 19.6933 15.3224C19.6463 15.2754 19.5826 15.249 19.5161 15.249Z" fill="white"/>
</svg>
