<svg width="23" height="23" viewBox="0 0 23 23" fill="none" xmlns="http://www.w3.org/2000/svg">
<g clip-path="url(#clip0_1610_21401)">
<path d="M15.3678 3.03418H1.57471V14.9882H15.3678V3.03418Z" stroke="white" strokeWidth="1.42899" strokeLinecap="round" strokeLinejoin="round"/>
<path d="M15.3682 7.63184H19.0463L21.8049 10.3905V14.9882H15.3682V7.63184Z" stroke="white" strokeWidth="1.42899" strokeLinecap="round" strokeLinejoin="round"/>
<path d="M5.71242 19.585C6.98204 19.585 8.01128 18.5558 8.01128 17.2862C8.01128 16.0165 6.98204 14.9873 5.71242 14.9873C4.4428 14.9873 3.41357 16.0165 3.41357 17.2862C3.41357 18.5558 4.4428 19.585 5.71242 19.585Z" stroke="white" strokeWidth="1.42899" strokeLinecap="round" strokeLinejoin="round"/>
<path d="M17.667 19.585C18.9366 19.585 19.9659 18.5558 19.9659 17.2862C19.9659 16.0165 18.9366 14.9873 17.667 14.9873C16.3974 14.9873 15.3682 16.0165 15.3682 17.2862C15.3682 18.5558 16.3974 19.585 17.667 19.585Z" stroke="white" strokeWidth="1.42899" strokeLinecap="round" strokeLinejoin="round"/>
</g>
<defs>
<clipPath id="clip0_1610_21401">
<rect width="22.069" height="22.069" fill="white" transform="translate(0.655273 0.275391)"/>
</clipPath>
</defs>
</svg>
