<svg width="24" height="24" viewBox="0 0 24 24" fill="none" xmlns="http://www.w3.org/2000/svg">
<rect width="24" height="24" rx="12" fill="#097000"/>
<path d="M8.85045 14.3372C8.85045 14.1566 8.79688 13.98 8.69652 13.8298C8.59616 13.6796 8.4535 13.5625 8.28661 13.4934C8.11971 13.4242 7.93605 13.4061 7.75887 13.4414C7.5817 13.4766 7.41895 13.5636 7.29121 13.6914C7.16347 13.8191 7.07648 13.9818 7.04123 14.159C7.00599 14.3362 7.02408 14.5199 7.09321 14.6868C7.16234 14.8537 7.27941 14.9963 7.42962 15.0967C7.57982 15.197 7.75642 15.2506 7.93707 15.2506C8.05714 15.2506 8.17603 15.2269 8.28694 15.1809C8.39785 15.1349 8.4986 15.0675 8.58344 14.9826C8.66827 14.8976 8.73552 14.7967 8.78134 14.6858C8.82715 14.5748 8.85064 14.4559 8.85045 14.3358V14.3372Z" fill="white"/>
<path d="M16.3421 12.9225C16.6723 12.9242 16.9914 13.0414 17.2443 13.2537C17.4971 13.466 17.6677 13.7601 17.7265 14.085H18.1861V11.8716L16.5812 9.5166H14.4939V14.085H14.952C15.0113 13.7592 15.1828 13.4646 15.4368 13.2522C15.6907 13.0398 16.0111 12.9232 16.3421 12.9225ZM15.2756 10.2739H16.1517L16.9363 11.3835H15.2756V10.2739Z" fill="white"/>
<path d="M16.3424 15.2477C16.846 15.2477 17.2543 14.8394 17.2543 14.3358C17.2543 13.8321 16.846 13.4238 16.3424 13.4238C15.8387 13.4238 15.4304 13.8321 15.4304 14.3358C15.4304 14.8394 15.8387 15.2477 16.3424 15.2477Z" fill="white"/>
<path d="M9.28013 10.41C9.31858 10.3979 9.35185 10.3732 9.37462 10.3399C9.39853 10.3023 9.41051 10.2584 9.40898 10.2139C9.41241 10.1621 9.39604 10.1109 9.36317 10.0707C9.3295 10.0348 9.28451 10.0116 9.23575 10.0049C9.20855 10.0049 9.12551 10.0049 8.98808 10.0049H8.71606V10.4344H8.96803C9.07267 10.4393 9.17752 10.4311 9.28013 10.41Z" fill="white"/>
<path d="M7.94006 12.9225C8.27128 12.9226 8.59192 13.0391 8.84601 13.2516C9.10009 13.4641 9.27146 13.759 9.33018 14.085H13.993V7.75H5.80835V14.085H6.54994C6.60919 13.7593 6.7807 13.4646 7.03467 13.2522C7.28864 13.0399 7.609 12.9232 7.94006 12.9225ZM11.6351 9.72137H12.8806V10.0077H11.9744V10.3799H12.8177V10.6662H11.9744V11.1229H12.9136V11.4093H11.6351V9.72137ZM10.0703 9.72137H11.3159V10.0077H10.4096V10.3799H11.2529V10.6662H10.4096V11.1229H11.3474V11.4093H10.0703V9.72137ZM8.37814 9.72137H9.09396C9.22578 9.71499 9.35776 9.72998 9.4848 9.76575C9.56506 9.79583 9.63305 9.85173 9.67807 9.92466C9.72749 10.004 9.75285 10.096 9.75108 10.1895C9.75512 10.304 9.71516 10.4157 9.63942 10.5016C9.55047 10.5908 9.43279 10.6456 9.30728 10.6562C9.37432 10.6951 9.43553 10.7433 9.48909 10.7994C9.56065 10.8843 9.62528 10.9748 9.68237 11.07L9.88709 11.3978H9.48194L9.23713 11.0356C9.18283 10.9479 9.12306 10.8638 9.05817 10.7836C9.03026 10.7526 8.99544 10.7286 8.95653 10.7135C8.90058 10.6984 8.84261 10.6921 8.78473 10.6949H8.71601V11.3964H8.37814V9.72137ZM6.9465 9.72137H8.09897V10.0077H7.28437V10.4057H7.9916V10.692H7.2901V11.4078H6.94507L6.9465 9.72137Z" fill="white"/>
<path d="M19.5161 15.249H4.48394C4.41749 15.249 4.35376 15.2754 4.30678 15.3224C4.25979 15.3694 4.2334 15.4331 4.2334 15.4996C4.2334 15.566 4.25979 15.6297 4.30678 15.6767C4.35376 15.7237 4.41749 15.7501 4.48394 15.7501H19.5161C19.5826 15.7501 19.6463 15.7237 19.6933 15.6767C19.7403 15.6297 19.7667 15.566 19.7667 15.4996C19.7667 15.4331 19.7403 15.3694 19.6933 15.3224C19.6463 15.2754 19.5826 15.249 19.5161 15.249Z" fill="white"/>
</svg>
