<svg width="19" height="19" viewBox="0 0 19 19" fill="none" xmlns="http://www.w3.org/2000/svg">
<g clipPath="url(#clip0_1155_23132)">
<path d="M12.9502 2.36078H1.7002V12.1108H12.9502V2.36078Z" stroke="#4C4C4C" strokeWidth="1.79009" strokeLinecap="round" strokeLinejoin="round"/>
<path d="M12.9502 6.11078H15.9502L18.2002 8.36078V12.1108H12.9502V6.11078Z" stroke="#4C4C4C" strokeWidth="1.79009" strokeLinecap="round" strokeLinejoin="round"/>
<path d="M5.0752 15.8608C6.11073 15.8608 6.9502 15.0213 6.9502 13.9858C6.9502 12.9502 6.11073 12.1108 5.0752 12.1108C4.03966 12.1108 3.2002 12.9502 3.2002 13.9858C3.2002 15.0213 4.03966 15.8608 5.0752 15.8608Z" stroke="#4C4C4C" strokeWidth="1.79009" strokeLinecap="round" strokeLinejoin="round"/>
<path d="M14.8252 15.8608C15.8607 15.8608 16.7002 15.0213 16.7002 13.9858C16.7002 12.9502 15.8607 12.1108 14.8252 12.1108C13.7897 12.1108 12.9502 12.9502 12.9502 13.9858C12.9502 15.0213 13.7897 15.8608 14.8252 15.8608Z" stroke="#4C4C4C" strokeWidth="1.79009" strokeLinecap="round" strokeLinejoin="round"/>
</g>
<defs>
<clipPath id="clip0_1155_23132">
<rect width="18" height="18" fill="white" transform="translate(0.950195 0.110779)"/>
</clipPath>
</defs>
</svg>
