<svg width="24" height="24" viewBox="0 0 24 24" fill="none" xmlns="http://www.w3.org/2000/svg">
<rect width="24" height="24" rx="12" fill="#BB0000"/>
<path d="M8.84972 14.3372C8.84972 14.1566 8.79615 13.98 8.69579 13.8298C8.59542 13.6796 8.45277 13.5625 8.28587 13.4934C8.11897 13.4242 7.93532 13.4061 7.75814 13.4414C7.58096 13.4766 7.41821 13.5636 7.29047 13.6914C7.16273 13.8191 7.07574 13.9818 7.0405 14.159C7.00526 14.3362 7.02334 14.5199 7.09248 14.6868C7.16161 14.8537 7.27868 14.9963 7.42889 15.0967C7.57909 15.197 7.75568 15.2506 7.93633 15.2506C8.0564 15.2506 8.17529 15.2269 8.2862 15.1809C8.39711 15.1349 8.49787 15.0675 8.5827 14.9826C8.66754 14.8976 8.73479 14.7967 8.7806 14.6858C8.82642 14.5748 8.84991 14.4559 8.84972 14.3358V14.3372Z" fill="white"/>
<path d="M16.3414 12.9225C16.6716 12.9242 16.9907 13.0414 17.2436 13.2537C17.4964 13.466 17.667 13.7601 17.7258 14.085H18.1854V11.8716L16.5805 9.5166H14.4932V14.085H14.9513C15.0105 13.7592 15.1821 13.4646 15.436 13.2522C15.69 13.0398 16.0103 12.9232 16.3414 12.9225ZM15.2748 10.2739H16.151L16.9355 11.3835H15.2748V10.2739Z" fill="white"/>
<path d="M16.3412 15.2477C16.8448 15.2477 17.2531 14.8394 17.2531 14.3358C17.2531 13.8321 16.8448 13.4238 16.3412 13.4238C15.8375 13.4238 15.4292 13.8321 15.4292 14.3358C15.4292 14.8394 15.8375 15.2477 16.3412 15.2477Z" fill="white"/>
<path d="M9.27891 10.41C9.31736 10.3979 9.35063 10.3732 9.3734 10.3399C9.39731 10.3023 9.40929 10.2584 9.40776 10.2139C9.41119 10.1621 9.39482 10.1109 9.36194 10.0707C9.32828 10.0348 9.28329 10.0116 9.23453 10.0049C9.20733 10.0049 9.12429 10.0049 8.98685 10.0049H8.71484V10.4344H8.96681C9.07145 10.4393 9.1763 10.4311 9.27891 10.41Z" fill="white"/>
<path d="M7.93933 12.9225C8.27054 12.9226 8.59119 13.0391 8.84527 13.2516C9.09936 13.4641 9.27072 13.759 9.32945 14.085H13.9923V7.75H5.80762V14.085H6.54921C6.60846 13.7593 6.77997 13.4646 7.03394 13.2522C7.2879 13.0399 7.60826 12.9232 7.93933 12.9225ZM11.6344 9.72137H12.8799V10.0077H11.9737V10.3799H12.8169V10.6662H11.9737V11.1229H12.9128V11.4093H11.6344V9.72137ZM10.0696 9.72137H11.3151V10.0077H10.4089V10.3799H11.2521V10.6662H10.4089V11.1229H11.3466V11.4093H10.0696V9.72137ZM8.37741 9.72137H9.09323C9.22505 9.71499 9.35703 9.72998 9.48407 9.76575C9.56433 9.79583 9.63231 9.85173 9.67734 9.92466C9.72675 10.004 9.75211 10.096 9.75035 10.1895C9.75439 10.304 9.71443 10.4157 9.63868 10.5016C9.54974 10.5908 9.43206 10.6456 9.30654 10.6562C9.37359 10.6951 9.4348 10.7433 9.48836 10.7994C9.55992 10.8843 9.62455 10.9748 9.68163 11.07L9.88636 11.3978H9.4812L9.23639 11.0356C9.1821 10.9479 9.12233 10.8638 9.05744 10.7836C9.02952 10.7526 8.9947 10.7286 8.95579 10.7135C8.89985 10.6984 8.84188 10.6921 8.784 10.6949H8.71528V11.3964H8.37741V9.72137ZM6.94577 9.72137H8.09824V10.0077H7.28364V10.4057H7.99087V10.692H7.28936V11.4078H6.94434L6.94577 9.72137Z" fill="white"/>
<path d="M19.5152 15.249H4.48296C4.41651 15.249 4.35279 15.2754 4.3058 15.3224C4.25882 15.3694 4.23242 15.4331 4.23242 15.4996C4.23242 15.566 4.25882 15.6297 4.3058 15.6767C4.35279 15.7237 4.41651 15.7501 4.48296 15.7501H19.5152C19.5816 15.7501 19.6453 15.7237 19.6923 15.6767C19.7393 15.6297 19.7657 15.566 19.7657 15.4996C19.7657 15.4331 19.7393 15.3694 19.6923 15.3224C19.6453 15.2754 19.5816 15.249 19.5152 15.249Z" fill="white"/>
</svg>
