<svg width="6" height="5" viewBox="0 0 6 5" fill="none" xmlns="http://www.w3.org/2000/svg">
<path d="M5.03105 2.79169V4.04169C5.04329 4.14724 5.0315 4.2542 4.99656 4.35455C4.96163 4.4549 4.90445 4.54606 4.82931 4.6212C4.75417 4.69633 4.66302 4.75351 4.56267 4.78844C4.46231 4.82338 4.35536 4.83517 4.2498 4.82294H1.7498C1.64425 4.83517 1.5373 4.82338 1.43694 4.78844C1.33659 4.75351 1.24543 4.69633 1.1703 4.6212C1.09516 4.54606 1.03798 4.4549 1.00305 4.35455C0.968112 4.2542 0.95632 4.14724 0.968554 4.04169V1.95835C0.95632 1.8528 0.968112 1.74585 1.00305 1.64549C1.03798 1.54514 1.09516 1.45398 1.1703 1.37885C1.24543 1.30371 1.33659 1.24653 1.43694 1.2116C1.5373 1.17666 1.64425 1.16487 1.7498 1.1771H3.41647C3.45791 1.1771 3.49765 1.19357 3.52696 1.22287C3.55626 1.25217 3.57272 1.29191 3.57272 1.33335C3.57272 1.37479 3.55626 1.41454 3.52696 1.44384C3.49765 1.47314 3.45791 1.4896 3.41647 1.4896H1.7498C1.42126 1.4896 1.28105 1.62981 1.28105 1.95835V3.88544L1.81022 3.35627C1.84956 3.31724 1.90272 3.29534 1.95814 3.29534C2.01355 3.29534 2.06672 3.31724 2.10605 3.35627L2.30189 3.5521C2.32136 3.57119 2.34754 3.58188 2.3748 3.58188C2.40207 3.58188 2.42825 3.57119 2.44772 3.5521L3.47689 2.52294C3.51622 2.48391 3.56939 2.462 3.6248 2.462C3.68022 2.462 3.73339 2.48391 3.77272 2.52294L4.71855 3.46877V2.79169C4.71855 2.75025 4.73502 2.7105 4.76432 2.6812C4.79362 2.6519 4.83336 2.63544 4.8748 2.63544C4.91624 2.63544 4.95599 2.6519 4.98529 2.6812C5.01459 2.7105 5.03105 2.75025 5.03105 2.79169ZM2.16501 2.1146C2.09584 2.1148 2.02958 2.14244 1.98077 2.19145C1.93196 2.24046 1.9046 2.30684 1.9047 2.37601C1.9048 2.44518 1.93234 2.51148 1.98129 2.56036C2.03023 2.60923 2.09657 2.63669 2.16574 2.63669C2.23491 2.63669 2.30125 2.60923 2.3502 2.56036C2.39914 2.51148 2.42669 2.44518 2.42678 2.37601C2.42688 2.30684 2.39952 2.24046 2.35071 2.19145C2.3019 2.14244 2.23564 2.1148 2.16647 2.1146H2.16501ZM4.36022 1.54794L4.40605 1.50231V1.95835C4.40605 1.99979 4.42252 2.03954 4.45182 2.06884C4.48112 2.09814 4.52086 2.1146 4.5623 2.1146C4.60374 2.1146 4.64349 2.09814 4.67279 2.06884C4.70209 2.03954 4.71855 1.99979 4.71855 1.95835V1.50231L4.76439 1.54794C4.79401 1.57554 4.83318 1.59056 4.87366 1.58985C4.91414 1.58913 4.95276 1.57274 4.98139 1.54411C5.01002 1.51548 5.02642 1.47686 5.02713 1.43638C5.02785 1.3959 5.01282 1.35672 4.98522 1.3271L4.67272 1.0146C4.6434 0.985394 4.60369 0.968994 4.5623 0.968994C4.52091 0.968994 4.48121 0.985394 4.45189 1.0146L4.13939 1.3271C4.11179 1.35672 4.09676 1.3959 4.09748 1.43638C4.09819 1.47686 4.11459 1.51548 4.14322 1.54411C4.17184 1.57274 4.21047 1.58913 4.25095 1.58985C4.29142 1.59056 4.3306 1.57554 4.36022 1.54794Z" fill="#F95506"/>
</svg>
